<svg width="48" height="48" viewBox="0 0 48 48" fill="none" xmlns="http://www.w3.org/2000/svg">
<circle cx="24" cy="24" r="24" fill="#F9F9F9" fill-opacity="0.1"/>
<path d="M33.5821 19.1861C33.3522 18.3256 32.6745 17.648 31.814 17.418C30.2541 17 24 17 24 17C24 17 17.7458 17 16.186 17.418C15.3256 17.648 14.6478 18.3256 14.4179 19.1861C14 20.7458 14 24.0001 14 24.0001C14 24.0001 14 27.2543 14.4179 28.8139C14.6478 29.6744 15.3256 30.3522 16.186 30.5822C17.7458 31 24 31 24 31C24 31 30.2541 31 31.814 30.5822C32.6745 30.3522 33.3522 29.6744 33.5821 28.8139C34 27.2543 34 24.0001 34 24.0001C34 24.0001 34 20.7458 33.5821 19.1861ZM21.9999 27.0002V21L27.1959 24.0001L21.9999 27.0002Z" fill="#F9F9F9"/>
</svg>
