<svg width="108" height="108" viewBox="0 0 108 108" fill="none" xmlns="http://www.w3.org/2000/svg">
<circle cx="54" cy="54" r="54" fill="#DFF2FF" fill-opacity="0.6"/>
<path d="M54.1205 49.9869C59.9007 49.9869 65.679 49.9869 71.4592 49.9869C72.2931 49.9869 72.3056 49.9976 72.3056 50.8261C72.3056 57.2511 72.3056 63.6779 72.3056 70.1028C72.3056 70.8972 72.277 70.9259 71.4877 70.9259C70.4181 70.9259 69.3503 70.9277 68.2807 70.9259C67.6664 70.9259 67.5986 70.8596 67.5968 70.223C67.595 65.7275 67.5861 61.2302 67.6022 56.7346C67.6057 55.63 67.2575 54.7173 66.329 54.104C65.4058 53.4926 64.4041 53.4406 63.4255 53.9534C62.4274 54.477 61.9113 55.3413 61.9113 56.4854C61.9077 61.015 61.9077 65.5446 61.9059 70.0741C61.9059 70.9008 61.8827 70.9259 61.0649 70.9259C59.9292 70.9259 58.7936 70.9259 57.6579 70.9259C57.0061 70.9259 56.9543 70.8739 56.9543 70.1997C56.9526 65.6862 56.9543 61.1746 56.9526 56.6611C56.9526 55.4113 56.4472 54.4465 55.308 53.8906C53.4063 52.9618 51.2563 54.3676 51.2438 56.5589C51.2242 59.9642 51.2349 63.3694 51.2331 66.7765C51.2331 67.9169 51.2331 69.0574 51.2331 70.1997C51.2331 70.8703 51.1778 70.9277 50.5296 70.9277C49.36 70.9277 48.1904 70.9277 47.0226 70.9277C46.3512 70.9277 46.2851 70.8614 46.2851 70.1692C46.2815 65.6396 46.2797 61.11 46.2815 56.5804C46.2815 55.2893 45.7083 54.3623 44.5316 53.844C42.7388 53.055 40.6407 54.3712 40.6085 56.3383C40.5692 58.7878 40.5942 61.2373 40.5925 63.6868C40.5925 65.8673 40.5925 68.0496 40.5925 70.2302C40.5925 70.8578 40.5175 70.9277 39.9032 70.9295C38.7675 70.9295 37.6318 70.9169 36.4962 70.9349C36.0373 70.942 35.8783 70.7466 35.8783 70.3019C35.8837 63.7424 35.8801 57.1829 35.8837 50.6235C35.8837 50.0443 35.9516 49.9905 36.6319 49.9905C42.462 49.9905 48.2922 49.9905 54.1205 49.9905V49.9869Z" fill="#138CD3"/>
<path d="M54.0705 48.5021C47.3886 48.5021 40.7085 48.5021 34.0266 48.5021C33.8427 48.5021 33.6588 48.5075 33.4749 48.4985C32.7927 48.4644 32.2606 48.0646 32.0821 47.4621C31.9106 46.8829 32.1321 46.2929 32.716 45.902C34.1302 44.9516 35.5534 44.0173 36.9765 43.0795C42.3192 39.5595 47.669 36.0502 52.9991 32.5123C53.7741 31.9976 54.4152 31.9958 55.1955 32.5123C61.822 36.9056 68.4664 41.272 75.1072 45.6456C75.2465 45.737 75.3876 45.8285 75.5215 45.9271C76.0572 46.318 76.2768 46.8918 76.1108 47.4621C75.9483 48.0233 75.4429 48.4304 74.8162 48.4913C74.618 48.5111 74.4162 48.5003 74.2144 48.5003C67.5004 48.5003 60.7846 48.5003 54.0705 48.5003V48.5021ZM58.6507 41.1285C58.6418 38.5965 56.6026 36.5577 54.0866 36.5667C51.5581 36.5756 49.5368 38.6109 49.5403 41.1447C49.5439 43.6677 51.5867 45.7137 54.1027 45.7137C56.6079 45.7137 58.6596 43.6462 58.6507 41.1285Z" fill="#138CD3"/>
<path d="M54.092 72.4035C61.1221 72.4035 68.1539 72.4035 75.184 72.4035C76.1501 72.4035 76.3215 72.5757 76.3215 73.5422C76.3215 74.3312 76.3268 75.1184 76.3197 75.9074C76.3126 76.5081 76.059 76.7591 75.4679 76.7771C75.368 76.7807 75.268 76.7771 75.168 76.7771C61.106 76.7771 47.044 76.7771 32.9838 76.7771C32.0535 76.7771 31.8696 76.5924 31.8696 75.6653C31.8696 74.9265 31.8696 74.1895 31.8714 73.4507C31.8731 72.6205 32.0821 72.4053 32.8999 72.4053C36.8587 72.4053 40.8157 72.4053 44.7744 72.4053C47.8815 72.4053 50.9867 72.4053 54.0937 72.4053L54.092 72.4035Z" fill="#138CD3"/>
</svg>
