<svg width="9" height="5" viewBox="0 0 9 5" fill="none" xmlns="http://www.w3.org/2000/svg">
<path d="M4.49291 3.72787L8.04678 0.176688C8.16193 0.0616133 8.28934 0.00274649 8.42903 8.70926e-05C8.56869 -0.00258615 8.69877 0.0562807 8.81925 0.176688C8.93975 0.297081 9 0.425729 9 0.562632C9 0.699536 8.93741 0.830532 8.81223 0.95562L4.95672 4.80821C4.8872 4.87215 4.81411 4.92009 4.73744 4.95205C4.66079 4.98402 4.57789 5 4.48875 5C4.3996 5 4.31671 4.98402 4.24005 4.95205C4.16338 4.92009 4.09307 4.87215 4.02909 4.80821L0.173585 0.95562C0.0537386 0.835864 -0.0040493 0.70966 0.000220299 0.577009C0.00447559 0.444372 0.0668516 0.317857 0.187349 0.197464C0.307833 0.0770572 0.436578 0.0168533 0.573585 0.0168533C0.710591 0.0168533 0.839335 0.0770572 0.959819 0.197464L4.49291 3.72787Z" fill="white"/>
</svg>
