<svg width="48" height="48" viewBox="0 0 48 48" fill="none" xmlns="http://www.w3.org/2000/svg">
<circle cx="24" cy="24" r="24" fill="#F9F9F9" fill-opacity="0.1"/>
<g clip-path="url(#clip0_74_138)">
<path d="M24 14C21.2833 14 20.9442 14.0125 19.8775 14.06C18.8125 14.11 18.0875 14.2775 17.45 14.525C16.7925 14.78 16.2342 15.1225 15.6783 15.6783C15.1225 16.2342 14.7792 16.7917 14.525 17.45C14.2775 18.0875 14.1092 18.8125 14.06 19.8775C14.01 20.9442 14 21.2833 14 24C14 26.7167 14.0125 27.0558 14.06 28.1225C14.11 29.1867 14.2775 29.9125 14.525 30.55C14.78 31.2067 15.1225 31.7658 15.6783 32.3217C16.2342 32.8767 16.7917 33.2208 17.45 33.475C18.0883 33.7217 18.8133 33.8908 19.8775 33.94C20.9442 33.99 21.2833 34 24 34C26.7167 34 27.0558 33.9875 28.1225 33.94C29.1867 33.89 29.9125 33.7217 30.55 33.475C31.2067 33.22 31.7658 32.8767 32.3217 32.3217C32.8767 31.7658 33.2208 31.2092 33.475 30.55C33.7217 29.9125 33.8908 29.1867 33.94 28.1225C33.99 27.0558 34 26.7167 34 24C34 21.2833 33.9875 20.9442 33.94 19.8775C33.89 18.8133 33.7217 18.0867 33.475 17.45C33.22 16.7925 32.8767 16.2342 32.3217 15.6783C31.7658 15.1225 31.2092 14.7792 30.55 14.525C29.9125 14.2775 29.1867 14.1092 28.1225 14.06C27.0558 14.01 26.7167 14 24 14ZM24 15.8C26.6692 15.8 26.9875 15.8133 28.0417 15.8592C29.0167 15.905 29.5458 16.0667 29.8975 16.205C30.3658 16.3858 30.6975 16.6025 31.0492 16.9517C31.3983 17.3017 31.615 17.6342 31.7958 18.1025C31.9325 18.4542 32.0958 18.9833 32.14 19.9583C32.1875 21.0133 32.1983 21.33 32.1983 24C32.1983 26.67 32.1858 26.9875 32.1367 28.0417C32.0858 29.0167 31.9233 29.5458 31.7858 29.8975C31.5992 30.3658 31.3867 30.6975 31.0367 31.0492C30.6875 31.3983 30.35 31.615 29.8867 31.7958C29.5367 31.9325 28.9992 32.0958 28.0242 32.14C26.9625 32.1875 26.65 32.1983 23.975 32.1983C21.2992 32.1983 20.9867 32.1858 19.9258 32.1367C18.95 32.0858 18.4125 31.9233 18.0625 31.7858C17.5883 31.5992 17.2625 31.3867 16.9133 31.0367C16.5625 30.6875 16.3383 30.35 16.1633 29.8867C16.0258 29.5367 15.8642 28.9992 15.8133 28.0242C15.7758 26.9742 15.7625 26.65 15.7625 23.9875C15.7625 21.3242 15.7758 20.9992 15.8133 19.9367C15.8642 18.9617 16.0258 18.425 16.1633 18.075C16.3383 17.6 16.5625 17.275 16.9133 16.9242C17.2625 16.575 17.5883 16.35 18.0625 16.1758C18.4125 16.0375 18.9383 15.875 19.9133 15.825C20.9758 15.7875 21.2883 15.775 23.9625 15.775L24 15.8ZM24 18.865C21.1625 18.865 18.865 21.165 18.865 24C18.865 26.8375 21.165 29.135 24 29.135C26.8375 29.135 29.135 26.835 29.135 24C29.135 21.1625 26.835 18.865 24 18.865ZM24 27.3333C22.1583 27.3333 20.6667 25.8417 20.6667 24C20.6667 22.1583 22.1583 20.6667 24 20.6667C25.8417 20.6667 27.3333 22.1583 27.3333 24C27.3333 25.8417 25.8417 27.3333 24 27.3333ZM30.5383 18.6625C30.5383 19.325 30 19.8625 29.3383 19.8625C28.6758 19.8625 28.1383 19.3242 28.1383 18.6625C28.1383 18.0008 28.6767 17.4633 29.3383 17.4633C29.9992 17.4625 30.5383 18.0008 30.5383 18.6625Z" fill="#F9F9F9"/>
</g>
<defs>
<clipPath id="clip0_74_138">
<rect width="20" height="20" fill="white" transform="translate(14 14)"/>
</clipPath>
</defs>
</svg>
