<svg width="36" height="36" viewBox="0 0 36 36" fill="none" xmlns="http://www.w3.org/2000/svg">
<rect width="36" height="36" rx="18" fill="white"/>
<path d="M23.3827 23.828L20.9803 21.4895C19.9443 22.2934 18.6605 22.7291 17.3388 22.7253C16.0171 22.7216 14.7359 22.2785 13.7048 21.4686C12.6738 20.6588 11.9539 19.5302 11.6631 18.2675C11.3722 17.0048 11.5277 15.6827 12.1039 14.5178C12.6802 13.3529 13.6431 12.414 14.8351 11.8549C16.0271 11.2958 17.3777 11.1495 18.6656 11.44C19.9536 11.7305 21.1027 12.4406 21.925 13.454C22.7472 14.4675 23.1939 15.7243 23.1918 17.0187C23.1928 18.3183 22.7383 19.5788 21.9045 20.5897L24.3069 22.9289C24.4214 23.0502 24.4834 23.2103 24.4799 23.3755C24.4763 23.5407 24.4075 23.6981 24.2878 23.8145C24.1682 23.931 24.0071 23.9975 23.8384 24C23.6698 24.0025 23.5059 23.9408 23.3827 23.828ZM12.7411 17.0187C12.7467 17.8959 13.0151 18.7523 13.5129 19.4815C14.0108 20.2107 14.7163 20.7808 15.542 21.121C16.3676 21.4612 17.277 21.5565 18.1574 21.3952C19.0379 21.2339 19.8506 20.823 20.4948 20.2135C20.5243 20.1777 20.5578 20.1452 20.5945 20.1165C21.4219 19.289 21.8852 18.1769 21.885 17.0187C21.885 15.8312 21.4033 14.6922 20.5459 13.8525C19.6885 13.0128 18.5256 12.541 17.313 12.541C16.1005 12.541 14.9376 13.0128 14.0802 13.8525C13.2228 14.6922 12.7411 15.8312 12.7411 17.0187Z" fill="#138CD3"/>
</svg>
